<svg xmlns="http://www.w3.org/2000/svg" xmlns:xlink="http://www.w3.org/1999/xlink" width="402.81" height="54.18" viewBox="0 0 402.81 54.18">
  <defs>
    <linearGradient id="linear-gradient" y1="0.5" x2="1" y2="0.5" gradientUnits="objectBoundingBox">
      <stop offset="0" stop-color="#3bd1b3"/>
      <stop offset="1" stop-color="#3bd1b3"/>
    </linearGradient>
  </defs>
  <g id="Gruppe_9" data-name="Gruppe 9" transform="translate(-2.276 -117.029)">
    <g id="Gruppe_8" data-name="Gruppe 8">
      <g id="Gruppe_7" data-name="Gruppe 7">
        <path id="Pfad_2" data-name="Pfad 2" d="M-174.64,0h-11.7a2.726,2.726,0,0,1-1.987-.614,2.726,2.726,0,0,1-.614-1.987h0V-38.07h-10.619a2.726,2.726,0,0,1-1.987-.614,2.726,2.726,0,0,1-.614-1.987h0v-8.741a2.726,2.726,0,0,1,.614-1.987,2.726,2.726,0,0,1,1.987-.614h38.143a2.726,2.726,0,0,1,1.987.614,2.726,2.726,0,0,1,.614,1.987h0v8.741a2.726,2.726,0,0,1-.614,1.987,2.726,2.726,0,0,1-1.987.614H-172.04V-2.6a2.726,2.726,0,0,1-.614,1.987A2.726,2.726,0,0,1-174.64,0Zm38.793-36.842h0l-3.4,10.98H-127.9l-3.4-10.98a2.748,2.748,0,0,0-.614-.939,1.106,1.106,0,0,0-.759-.289h-1.806a1.106,1.106,0,0,0-.759.289A2.748,2.748,0,0,0-135.847-36.842Zm-4.118,24.128V-2.6a2.726,2.726,0,0,1-.614,1.987A2.726,2.726,0,0,1-142.566,0h-10.619a2.726,2.726,0,0,1-1.987-.614,2.726,2.726,0,0,1-.614-1.987h0V-21.672a21.371,21.371,0,0,1,.686-4.985,54.968,54.968,0,0,1,2.131-6.574h0l6.285-16.4a3.389,3.389,0,0,1,1.336-1.806A4.292,4.292,0,0,1-143-52.013h19.433a4.146,4.146,0,0,1,2.276.578,3.389,3.389,0,0,1,1.336,1.806h0l6.285,16.4a54.97,54.97,0,0,1,2.131,6.574,21.371,21.371,0,0,1,.686,4.985h0V-2.6a2.726,2.726,0,0,1-.614,1.987A2.726,2.726,0,0,1-113.453,0h-10.908a3.128,3.128,0,0,1-2.131-.614,2.545,2.545,0,0,1-.686-1.987h0V-12.714ZM-62.6,0h-36.77a2.726,2.726,0,0,1-1.987-.614,2.726,2.726,0,0,1-.614-1.987h0V-49.412a2.726,2.726,0,0,1,.614-1.987,2.726,2.726,0,0,1,1.987-.614h11.2a2.726,2.726,0,0,1,1.987.614,2.726,2.726,0,0,1,.614,1.987h0v35.759h9.9v-11.7a2.726,2.726,0,0,1,.614-1.987,2.726,2.726,0,0,1,1.987-.614H-62.6a2.726,2.726,0,0,1,1.987.614A2.726,2.726,0,0,1-60-25.356h0V-2.6a2.726,2.726,0,0,1-.614,1.987A2.726,2.726,0,0,1-62.6,0Zm24.634,0h-11.2a2.726,2.726,0,0,1-1.987-.614A2.726,2.726,0,0,1-51.76-2.6h0V-49.412a2.726,2.726,0,0,1,.614-1.987,2.726,2.726,0,0,1,1.987-.614h11.2a2.726,2.726,0,0,1,1.987.614,2.726,2.726,0,0,1,.614,1.987h0V-32.8h2.89l7.441-16.832a3.62,3.62,0,0,1,1.373-1.842,4.168,4.168,0,0,1,2.239-.542h11.125a1.912,1.912,0,0,1,1.662.614,1.787,1.787,0,0,1-.072,1.77h0L-16.073-32.8a9.049,9.049,0,0,1,6.465,2.853,9.906,9.906,0,0,1,2.42,6.971h0V-2.6A2.726,2.726,0,0,1-7.8-.614,2.726,2.726,0,0,1-9.789,0H-20.913A2.726,2.726,0,0,1-22.9-.614,2.726,2.726,0,0,1-23.514-2.6h0V-16.687a2.624,2.624,0,0,0-.578-1.806,2.2,2.2,0,0,0-1.734-.65h-9.536V-2.6a2.726,2.726,0,0,1-.614,1.987A2.726,2.726,0,0,1-37.962,0ZM24.887,0h-11.7A2.726,2.726,0,0,1,11.2-.614,2.726,2.726,0,0,1,10.583-2.6h0V-38.07H-.036a2.726,2.726,0,0,1-1.987-.614,2.726,2.726,0,0,1-.614-1.987h0v-8.741A2.726,2.726,0,0,1-2.023-51.4a2.726,2.726,0,0,1,1.987-.614H38.107a2.726,2.726,0,0,1,1.987.614,2.726,2.726,0,0,1,.614,1.987h0v8.741a2.726,2.726,0,0,1-.614,1.987,2.726,2.726,0,0,1-1.987.614H27.487V-2.6a2.726,2.726,0,0,1-.614,1.987A2.726,2.726,0,0,1,24.887,0ZM91.42-38.287v24.634a17.708,17.708,0,0,1-.975,6.032A10.085,10.085,0,0,1,86.977-3a18.566,18.566,0,0,1-6.863,3A47.187,47.187,0,0,1,69.025,1.084h0A47.661,47.661,0,0,1,57.9,0,18.581,18.581,0,0,1,51-3a10.085,10.085,0,0,1-3.468-4.623,17.708,17.708,0,0,1-.975-6.032h0V-38.287a17.708,17.708,0,0,1,.975-6.032A10.3,10.3,0,0,1,51-48.979a18.2,18.2,0,0,1,6.9-3.034A47.661,47.661,0,0,1,69.025-53.1h0a47.187,47.187,0,0,1,11.089,1.084,18.182,18.182,0,0,1,6.863,3.034,10.3,10.3,0,0,1,3.468,4.659,17.708,17.708,0,0,1,.975,6.032Zm-28.463,2.6v19.433a3.125,3.125,0,0,0,1.084,2.42q1.084.975,4.985.975h0q3.9,0,4.985-.975a3.125,3.125,0,0,0,1.084-2.42h0V-35.687a3.049,3.049,0,0,0-1.084-2.348q-1.084-.975-4.985-.975h0q-3.9,0-4.985.975a3.049,3.049,0,0,0-1.084,2.348ZM113.959,0H103.195a2.726,2.726,0,0,1-1.987-.614,2.726,2.726,0,0,1-.614-1.987h0V-49.412a2.726,2.726,0,0,1,.614-1.987,2.726,2.726,0,0,1,1.987-.614h11.631a3.381,3.381,0,0,1,1.914.506,4.735,4.735,0,0,1,1.409,1.662h0l6.5,11.775a5.746,5.746,0,0,0,.614.939.865.865,0,0,0,.686.289h.65a.865.865,0,0,0,.686-.289,5.745,5.745,0,0,0,.614-.939h0l6.429-11.775a4.735,4.735,0,0,1,1.409-1.662,3.381,3.381,0,0,1,1.914-.506h11.7a2.726,2.726,0,0,1,1.987.614,2.726,2.726,0,0,1,.614,1.987h0V-2.6a2.726,2.726,0,0,1-.614,1.987A2.726,2.726,0,0,1,149.356,0H138.231a2.726,2.726,0,0,1-1.987-.614,2.726,2.726,0,0,1-.614-1.987h0V-28.029l-4.262,7.874a4.371,4.371,0,0,1-1.553,1.77,4.361,4.361,0,0,1-2.276.542h-2.89a4.362,4.362,0,0,1-2.276-.542,4.371,4.371,0,0,1-1.553-1.77h0l-4.262-7.874V-2.6a2.726,2.726,0,0,1-.614,1.987A2.726,2.726,0,0,1,113.959,0Zm84.087,0H164.527a2.726,2.726,0,0,1-1.987-.614,2.726,2.726,0,0,1-.614-1.987h0V-49.412a2.726,2.726,0,0,1,.614-1.987,2.726,2.726,0,0,1,1.987-.614h33.519a2.726,2.726,0,0,1,1.987.614,2.726,2.726,0,0,1,.614,1.987h0v8.452a2.726,2.726,0,0,1-.614,1.987,2.726,2.726,0,0,1-1.987.614H178.108V-32.8h14.087a2.726,2.726,0,0,1,1.987.614A2.726,2.726,0,0,1,194.8-30.2h0v7.73a2.726,2.726,0,0,1-.614,1.987,2.726,2.726,0,0,1-1.987.614H178.108v6.213h19.938a2.726,2.726,0,0,1,1.987.614,2.726,2.726,0,0,1,.614,1.987h0V-2.6a2.726,2.726,0,0,1-.614,1.987A2.726,2.726,0,0,1,198.046,0Z" transform="translate(204.439 170.125)" fill="url(#linear-gradient)"/>
      </g>
    </g>
  </g>
</svg>
