<?xml version="1.0" encoding="UTF-8"?>
<svg xmlns="http://www.w3.org/2000/svg" xmlns:xlink="http://www.w3.org/1999/xlink" width="126pt" height="17pt" viewBox="0 0 126 17" version="1.1">
<g id="surface1">
<path style=" stroke:none;fill-rule:nonzero;fill:rgb(23.137255%,81.960784%,70.196078%);fill-opacity:1;" d="M 8.605469 16.714844 L 4.945312 16.714844 C 4.722656 16.734375 4.5 16.667969 4.324219 16.523438 C 4.183594 16.347656 4.113281 16.121094 4.132812 15.898438 L 4.132812 4.730469 L 0.8125 4.730469 C 0.589844 4.75 0.367188 4.683594 0.191406 4.539062 C 0.0507812 4.363281 -0.0195312 4.136719 0 3.910156 L 0 1.160156 C -0.0195312 0.933594 0.0507812 0.710938 0.191406 0.535156 C 0.367188 0.390625 0.589844 0.320312 0.8125 0.339844 L 12.738281 0.339844 C 12.964844 0.320312 13.1875 0.390625 13.359375 0.535156 C 13.503906 0.710938 13.574219 0.933594 13.550781 1.160156 L 13.550781 3.910156 C 13.574219 4.136719 13.503906 4.363281 13.359375 4.539062 C 13.1875 4.683594 12.964844 4.75 12.738281 4.730469 L 9.417969 4.730469 L 9.417969 15.898438 C 9.4375 16.121094 9.371094 16.347656 9.226562 16.523438 C 9.050781 16.667969 8.828125 16.734375 8.605469 16.714844 Z M 20.734375 5.117188 L 19.671875 8.574219 L 23.21875 8.574219 L 22.15625 5.117188 C 22.113281 5.007812 22.046875 4.90625 21.964844 4.820312 C 21.898438 4.761719 21.8125 4.730469 21.726562 4.730469 L 21.160156 4.730469 C 21.074219 4.730469 20.988281 4.761719 20.925781 4.820312 C 20.839844 4.90625 20.777344 5.007812 20.734375 5.117188 Z M 19.445312 12.710938 L 19.445312 15.898438 C 19.46875 16.121094 19.398438 16.347656 19.253906 16.523438 C 19.082031 16.667969 18.859375 16.734375 18.632812 16.714844 L 15.3125 16.714844 C 15.089844 16.734375 14.867188 16.667969 14.691406 16.523438 C 14.546875 16.347656 14.480469 16.121094 14.5 15.898438 L 14.5 9.894531 C 14.511719 9.363281 14.582031 8.835938 14.714844 8.324219 C 14.894531 7.621094 15.117188 6.929688 15.378906 6.253906 L 17.347656 1.089844 C 17.417969 0.859375 17.5625 0.660156 17.761719 0.523438 C 17.984375 0.390625 18.242188 0.328125 18.496094 0.339844 L 24.574219 0.339844 C 24.824219 0.332031 25.070312 0.394531 25.285156 0.523438 C 25.484375 0.660156 25.632812 0.859375 25.703125 1.089844 L 27.667969 6.253906 C 27.933594 6.929688 28.15625 7.621094 28.335938 8.324219 C 28.464844 8.835938 28.539062 9.363281 28.546875 9.894531 L 28.546875 15.898438 C 28.570312 16.121094 28.5 16.347656 28.355469 16.523438 C 28.183594 16.667969 27.960938 16.734375 27.734375 16.714844 L 24.324219 16.714844 C 24.085938 16.734375 23.851562 16.667969 23.660156 16.523438 C 23.5 16.355469 23.421875 16.125 23.445312 15.898438 L 23.445312 12.710938 Z M 43.636719 16.714844 L 32.140625 16.714844 C 31.914062 16.734375 31.691406 16.667969 31.515625 16.523438 C 31.375 16.347656 31.304688 16.121094 31.324219 15.898438 L 31.324219 1.160156 C 31.304688 0.933594 31.375 0.710938 31.515625 0.535156 C 31.691406 0.390625 31.914062 0.320312 32.140625 0.339844 L 35.640625 0.339844 C 35.863281 0.320312 36.089844 0.390625 36.261719 0.535156 C 36.40625 0.710938 36.472656 0.933594 36.453125 1.160156 L 36.453125 12.417969 L 39.550781 12.417969 L 39.550781 8.734375 C 39.527344 8.507812 39.597656 8.28125 39.742188 8.109375 C 39.914062 7.964844 40.136719 7.894531 40.363281 7.914062 L 43.636719 7.914062 C 43.859375 7.894531 44.082031 7.964844 44.257812 8.109375 C 44.398438 8.28125 44.46875 8.507812 44.449219 8.734375 L 44.449219 15.898438 C 44.46875 16.121094 44.398438 16.347656 44.257812 16.523438 C 44.082031 16.667969 43.859375 16.734375 43.636719 16.714844 Z M 51.335938 16.714844 L 47.835938 16.714844 C 47.609375 16.734375 47.386719 16.667969 47.214844 16.523438 C 47.070312 16.347656 47.003906 16.121094 47.023438 15.898438 L 47.023438 1.160156 C 47.003906 0.933594 47.074219 0.710938 47.214844 0.535156 C 47.390625 0.390625 47.613281 0.320312 47.835938 0.339844 L 51.339844 0.339844 C 51.5625 0.320312 51.785156 0.390625 51.960938 0.535156 C 52.105469 0.710938 52.171875 0.933594 52.152344 1.160156 L 52.152344 6.390625 L 53.054688 6.390625 L 55.382812 1.089844 C 55.460938 0.855469 55.609375 0.652344 55.8125 0.511719 C 56.023438 0.386719 56.265625 0.328125 56.511719 0.339844 L 59.988281 0.339844 C 60.183594 0.316406 60.378906 0.386719 60.507812 0.535156 C 60.601562 0.710938 60.59375 0.921875 60.488281 1.089844 L 58.183594 6.390625 C 58.949219 6.402344 59.679688 6.726562 60.203125 7.289062 C 60.726562 7.894531 60.996094 8.679688 60.960938 9.480469 L 60.960938 15.898438 C 60.980469 16.121094 60.910156 16.347656 60.769531 16.523438 C 60.59375 16.667969 60.371094 16.738281 60.148438 16.714844 L 56.667969 16.714844 C 56.445312 16.734375 56.222656 16.667969 56.046875 16.523438 C 55.902344 16.347656 55.835938 16.121094 55.855469 15.898438 L 55.855469 11.460938 C 55.867188 11.257812 55.804688 11.054688 55.675781 10.894531 C 55.53125 10.75 55.335938 10.671875 55.132812 10.6875 L 52.152344 10.6875 L 52.152344 15.898438 C 52.171875 16.121094 52.101562 16.347656 51.960938 16.523438 C 51.785156 16.667969 51.5625 16.734375 51.339844 16.714844 Z M 70.988281 16.714844 L 67.332031 16.714844 C 67.105469 16.734375 66.882812 16.667969 66.710938 16.523438 C 66.566406 16.347656 66.496094 16.121094 66.515625 15.898438 L 66.515625 4.730469 L 63.195312 4.730469 C 62.972656 4.75 62.75 4.683594 62.574219 4.539062 C 62.429688 4.363281 62.363281 4.136719 62.382812 3.910156 L 62.382812 1.160156 C 62.363281 0.933594 62.429688 0.707031 62.574219 0.535156 C 62.75 0.390625 62.972656 0.320312 63.195312 0.339844 L 75.121094 0.339844 C 75.347656 0.320312 75.570312 0.390625 75.742188 0.535156 C 75.886719 0.707031 75.957031 0.933594 75.933594 1.160156 L 75.933594 3.910156 C 75.957031 4.136719 75.886719 4.363281 75.742188 4.535156 C 75.570312 4.679688 75.347656 4.75 75.121094 4.730469 L 71.800781 4.730469 L 71.800781 15.898438 C 71.820312 16.121094 71.753906 16.347656 71.609375 16.523438 C 71.4375 16.667969 71.210938 16.734375 70.988281 16.714844 Z M 91.789062 4.660156 L 91.789062 12.417969 C 91.796875 13.0625 91.695312 13.707031 91.484375 14.316406 C 91.273438 14.898438 90.894531 15.402344 90.402344 15.769531 C 89.757812 16.230469 89.027344 16.550781 88.253906 16.714844 C 87.117188 16.964844 85.953125 17.082031 84.789062 17.058594 C 83.621094 17.082031 82.453125 16.964844 81.308594 16.714844 C 80.535156 16.550781 79.800781 16.230469 79.152344 15.769531 C 78.65625 15.402344 78.28125 14.898438 78.070312 14.316406 C 77.859375 13.707031 77.753906 13.0625 77.761719 12.417969 L 77.761719 4.660156 C 77.753906 4.015625 77.859375 3.375 78.070312 2.761719 C 78.28125 2.179688 78.660156 1.671875 79.152344 1.296875 C 79.796875 0.828125 80.53125 0.503906 81.308594 0.339844 C 82.453125 0.0898438 83.621094 -0.0234375 84.789062 0 C 85.953125 -0.0273438 87.117188 0.0898438 88.253906 0.339844 C 89.027344 0.503906 89.757812 0.828125 90.402344 1.296875 C 90.894531 1.667969 91.269531 2.179688 91.484375 2.761719 C 91.695312 3.371094 91.796875 4.015625 91.789062 4.660156 Z M 82.890625 5.480469 L 82.890625 11.597656 C 82.886719 11.890625 83.011719 12.167969 83.230469 12.359375 C 83.457031 12.566406 83.976562 12.667969 84.789062 12.667969 C 85.601562 12.667969 86.121094 12.566406 86.347656 12.359375 C 86.566406 12.167969 86.691406 11.890625 86.6875 11.597656 L 86.6875 5.480469 C 86.6875 5.195312 86.5625 4.925781 86.347656 4.742188 C 86.121094 4.535156 85.601562 4.433594 84.789062 4.433594 C 83.976562 4.433594 83.457031 4.535156 83.230469 4.742188 C 83.015625 4.925781 82.890625 5.195312 82.890625 5.480469 Z M 98.835938 16.714844 L 95.472656 16.714844 C 95.246094 16.734375 95.023438 16.667969 94.851562 16.523438 C 94.707031 16.347656 94.636719 16.121094 94.660156 15.898438 L 94.660156 1.160156 C 94.636719 0.933594 94.707031 0.710938 94.851562 0.535156 C 95.023438 0.390625 95.246094 0.320312 95.472656 0.339844 L 99.109375 0.339844 C 99.320312 0.332031 99.527344 0.386719 99.707031 0.5 C 99.890625 0.636719 100.042969 0.816406 100.148438 1.023438 L 102.179688 4.730469 C 102.234375 4.835938 102.296875 4.933594 102.371094 5.027344 C 102.425781 5.085938 102.503906 5.121094 102.585938 5.117188 L 102.789062 5.117188 C 102.871094 5.121094 102.949219 5.085938 103.003906 5.027344 C 103.078125 4.933594 103.140625 4.835938 103.195312 4.730469 L 105.207031 1.023438 C 105.308594 0.816406 105.460938 0.636719 105.644531 0.5 C 105.824219 0.386719 106.035156 0.332031 106.246094 0.339844 L 109.902344 0.339844 C 110.128906 0.320312 110.351562 0.390625 110.523438 0.535156 C 110.667969 0.710938 110.738281 0.933594 110.714844 1.160156 L 110.714844 15.898438 C 110.738281 16.121094 110.667969 16.347656 110.523438 16.523438 C 110.351562 16.667969 110.128906 16.734375 109.902344 16.714844 L 106.425781 16.714844 C 106.203125 16.734375 105.976562 16.667969 105.804688 16.523438 C 105.660156 16.347656 105.59375 16.121094 105.613281 15.898438 L 105.613281 7.890625 L 104.28125 10.371094 C 104.171875 10.597656 104.003906 10.789062 103.792969 10.925781 C 103.578125 11.046875 103.332031 11.109375 103.082031 11.097656 L 102.179688 11.097656 C 101.929688 11.109375 101.683594 11.046875 101.46875 10.925781 C 101.257812 10.789062 101.089844 10.597656 100.980469 10.371094 L 99.648438 7.890625 L 99.648438 15.898438 C 99.671875 16.121094 99.601562 16.347656 99.457031 16.523438 C 99.285156 16.667969 99.0625 16.734375 98.835938 16.714844 Z M 125.128906 16.714844 L 114.648438 16.714844 C 114.421875 16.734375 114.199219 16.667969 114.027344 16.523438 C 113.882812 16.347656 113.8125 16.121094 113.835938 15.898438 L 113.835938 1.160156 C 113.8125 0.933594 113.882812 0.710938 114.027344 0.535156 C 114.199219 0.390625 114.421875 0.320312 114.648438 0.339844 L 125.128906 0.339844 C 125.351562 0.320312 125.574219 0.390625 125.75 0.535156 C 125.890625 0.710938 125.960938 0.933594 125.941406 1.160156 L 125.941406 3.820312 C 125.960938 4.046875 125.890625 4.269531 125.75 4.445312 C 125.574219 4.589844 125.351562 4.660156 125.128906 4.640625 L 118.894531 4.640625 L 118.894531 6.390625 L 123.296875 6.390625 C 123.523438 6.367188 123.746094 6.4375 123.917969 6.582031 C 124.0625 6.757812 124.132812 6.980469 124.113281 7.207031 L 124.113281 9.640625 C 124.132812 9.867188 124.0625 10.09375 123.921875 10.265625 C 123.746094 10.410156 123.523438 10.480469 123.300781 10.460938 L 118.894531 10.460938 L 118.894531 12.417969 L 125.128906 12.417969 C 125.351562 12.394531 125.574219 12.464844 125.75 12.609375 C 125.890625 12.785156 125.960938 13.007812 125.941406 13.234375 L 125.941406 15.898438 C 125.960938 16.121094 125.890625 16.347656 125.75 16.523438 C 125.574219 16.667969 125.351562 16.734375 125.128906 16.714844 Z M 125.128906 16.714844 "/>
</g>
</svg>
