<?xml version="1.0" encoding="utf-8"?>
<!-- Generator: Adobe Illustrator 15.0.0, SVG Export Plug-In . SVG Version: 6.00 Build 0)  -->
<!DOCTYPE svg PUBLIC "-//W3C//DTD SVG 1.1//EN" "http://www.w3.org/Graphics/SVG/1.1/DTD/svg11.dtd">
<svg xmlns="http://www.w3.org/2000/svg" xmlns:inkscape="http://www.inkscape.org/namespaces/inkscape" xmlns:sodipodi="http://sodipodi.sourceforge.net/DTD/sodipodi-0.dtd" xmlns:xlink="http://www.w3.org/1999/xlink" xmlns:ns1="http://www.inkscape.org/namespaces/inkscape" xmlns:sketch="http://www.bohemiancoding.com/sketch/ns" class="thumb" width="579" height="409" viewBox="0,0,579,409"><defs/><g><g transform="matrix(1.0695,0,0,1.0695,168.0199,0.5346)"><svg width="187.0337218024264" height="186.77" viewBox="-5.131860901213205,-5,187.0337218024264,186.77" class="thumb"><defs><linearGradient x1="0" y1="0.5" x2="1" y2="0.5" id="linearGradientSklw2oz2og9"><stop offset="0%" stop-color="#13138a"/><stop offset="100%" stop-color="#13138a"/></linearGradient></defs><g><circle cx="88.385" cy="88.385" r="88.385" fill="url('#linearGradientSklw2oz2og9')"/></g></svg></g><g transform="matrix(1.6338,0,0,1.6338,196.948,27.1184)"><svg width="87.00766956956133" height="87.19999999999999" viewBox="6.442330430438666,6.4,87.00766956956133,87.19999999999999"><defs><linearGradient x1="0" y1="0.5" x2="1" y2="0.5" id="linearGradientSklw2oz2ogf"><stop offset="0%" stop-color="#3bd1b3"/><stop offset="100%" stop-color="#3bd1b3"/></linearGradient></defs><g><path d="M22.7,22.7C8.8,36.6,7.7,58.8,19.8,74c-1.6,3-3.3,5-5.3,6c-1.7,0.8-2.7,2.7-2.4,4.6c0.3,1.9,1.7,3.4,3.6,3.6  c4.2,0.7,10.5-0.1,16.4-4c5.6,2.9,11.7,4.4,17.8,4.4c10,0,19.9-3.9,27.3-11.3c15-15,15-39.5,0-54.5C70,15.4,60.3,11.4,50,11.4  S30,15.4,22.7,22.7z M73.1,73.1c-10.5,10.5-26.8,12.6-39.6,5.1l-1.7-1l-1.6,1.2c-3,2.3-6.1,3.5-8.9,3.9c1.8-1.9,3.4-4.4,4.8-7.5  l0.8-1.7l-1.3-1.4c-11.4-12.9-10.8-32.5,1.4-44.7c6.2-6.2,14.4-9.6,23.1-9.6s16.9,3.4,23.1,9.6C85.8,39.6,85.8,60.3,73.1,73.1z   M50,46.3c2,0,3.7,1.6,3.7,3.7c0,2-1.6,3.7-3.7,3.7c-2,0-3.7-1.6-3.7-3.7C46.3,48,48,46.3,50,46.3z M59,50c0-2,1.6-3.7,3.7-3.7  c2,0,3.7,1.6,3.7,3.7c0,2-1.6,3.7-3.7,3.7C60.6,53.7,59,52,59,50z M41,50c0,2-1.6,3.7-3.7,3.7c-2,0-3.7-1.6-3.7-3.7  c0-2,1.6-3.7,3.7-3.7C39.4,46.3,41,48,41,50z" fill="url('#linearGradientSklw2oz2ogf')"/></g></svg></g><g transform="matrix(0.7224,0,0,0.7224,65.5683,123.4563)"><svg width="566" height="374" style="overflow: visible;"><defs><linearGradient x1="0" y1="0.5" x2="1" y2="0.5" id="linearGradientSklw2oz2ogn"><stop offset="0%" stop-color="#3bd1b3"/><stop offset="100%" stop-color="#3bd1b3"/></linearGradient></defs><g><path d="M-241.75000000000003 0L-241.75000000000003 0L-257.95000000000005 0Q-259.85 0 -260.70000000000005-0.85Q-261.55-1.7 -261.55-3.6L-261.55-3.6L-261.55-52.7L-276.25000000000006-52.7Q-278.15000000000003-52.7 -279.00000000000006-53.55Q-279.85-54.4 -279.85-56.3L-279.85-56.3L-279.85-68.4Q-279.85-70.3 -279.00000000000006-71.15Q-278.15000000000003-72 -276.25000000000006-72L-276.25000000000006-72L-223.45000000000005-72Q-221.55000000000004-72 -220.70000000000005-71.15Q-219.85000000000002-70.3 -219.85000000000002-68.4L-219.85000000000002-68.4L-219.85000000000002-56.3Q-219.85000000000002-54.4 -220.70000000000005-53.55Q-221.55000000000004-52.7 -223.45000000000005-52.7L-223.45000000000005-52.7L-238.15000000000003-52.7L-238.15000000000003-3.6Q-238.15000000000003-1.7 -239.00000000000003-0.85Q-239.85000000000002 0 -241.75000000000003 0ZM-188.05000000000004-51L-188.05000000000004-51L-192.75000000000003-35.8L-177.05000000000004-35.8L-181.75000000000006-51Q-182.15000000000003-51.9 -182.60000000000002-52.3Q-183.05000000000004-52.7 -183.65000000000003-52.7L-183.65000000000003-52.7L-186.15000000000003-52.7Q-186.75000000000006-52.7 -187.20000000000005-52.3Q-187.65000000000003-51.9 -188.05000000000004-51ZM-193.75000000000003-17.6L-193.75000000000003-3.6Q-193.75000000000003-1.7 -194.60000000000005-0.85Q-195.45000000000005 0 -197.35000000000005 0L-197.35000000000005 0L-212.05000000000004 0Q-213.95000000000005 0 -214.80000000000004-0.85Q-215.65000000000003-1.7 -215.65000000000003-3.6L-215.65000000000003-3.6L-215.65000000000003-30Q-215.65000000000003-33 -214.70000000000005-36.9Q-213.75000000000003-40.8 -211.75000000000003-46L-211.75000000000003-46L-203.05000000000004-68.7Q-202.45000000000005-70.4 -201.20000000000005-71.2Q-199.95000000000005-72 -197.95000000000005-72L-197.95000000000005-72L-171.05000000000004-72Q-169.15000000000003-72 -167.90000000000003-71.2Q-166.65000000000003-70.4 -166.05000000000004-68.7L-166.05000000000004-68.7L-157.35000000000002-46Q-155.35000000000002-40.8 -154.40000000000003-36.9Q-153.45000000000005-33 -153.45000000000005-30L-153.45000000000005-30L-153.45000000000005-3.6Q-153.45000000000005-1.7 -154.30000000000004-0.85Q-155.15000000000003 0 -157.05000000000004 0L-157.05000000000004 0L-172.15000000000003 0Q-174.15000000000003 0 -175.10000000000002-0.85Q-176.05000000000004-1.7 -176.05000000000004-3.6L-176.05000000000004-3.6L-176.05000000000004-17.6L-193.75000000000003-17.6ZM-86.65000000000003 0L-86.65000000000003 0L-137.55000000000004 0Q-139.45000000000005 0 -140.30000000000004-0.85Q-141.15000000000003-1.7 -141.15000000000003-3.6L-141.15000000000003-3.6L-141.15000000000003-68.4Q-141.15000000000003-70.3 -140.30000000000004-71.15Q-139.45000000000005-72 -137.55000000000004-72L-137.55000000000004-72L-122.05000000000004-72Q-120.15000000000003-72 -119.30000000000004-71.15Q-118.45000000000005-70.3 -118.45000000000005-68.4L-118.45000000000005-68.4L-118.45000000000005-18.9L-104.75000000000004-18.9L-104.75000000000004-35.1Q-104.75000000000004-37 -103.90000000000003-37.85Q-103.05000000000004-38.7 -101.15000000000003-38.7L-101.15000000000003-38.7L-86.65000000000003-38.7Q-84.75000000000004-38.7 -83.90000000000003-37.85Q-83.05000000000004-37 -83.05000000000004-35.1L-83.05000000000004-35.1L-83.05000000000004-3.6Q-83.05000000000004-1.7 -83.90000000000003-0.85Q-84.75000000000004 0 -86.65000000000003 0ZM-52.55000000000004 0L-52.55000000000004 0L-68.05000000000004 0Q-69.95000000000005 0 -70.80000000000004-0.85Q-71.65000000000003-1.7 -71.65000000000003-3.6L-71.65000000000003-3.6L-71.65000000000003-68.4Q-71.65000000000003-70.3 -70.80000000000004-71.15Q-69.95000000000005-72 -68.05000000000004-72L-68.05000000000004-72L-52.55000000000004-72Q-50.65000000000004-72 -49.80000000000004-71.15Q-48.95000000000004-70.3 -48.95000000000004-68.4L-48.95000000000004-68.4L-48.95000000000004-45.4L-44.95000000000004-45.4L-34.65000000000004-68.7Q-33.95000000000004-70.5 -32.75000000000004-71.25Q-31.55000000000004-72 -29.65000000000004-72L-29.65000000000004-72L-14.250000000000043-72Q-12.55000000000004-72 -11.950000000000045-71.15Q-11.350000000000037-70.3 -12.05000000000004-68.7L-12.05000000000004-68.7L-22.250000000000043-45.4Q-16.65000000000004-45.1 -13.30000000000004-41.45Q-9.950000000000045-37.8 -9.950000000000045-31.8L-9.950000000000045-31.8L-9.950000000000045-3.6Q-9.950000000000045-1.7 -10.80000000000004-0.85Q-11.650000000000034 0 -13.55000000000004 0L-13.55000000000004 0L-28.95000000000004 0Q-30.850000000000037 0 -31.70000000000004-0.85Q-32.55000000000004-1.7 -32.55000000000004-3.6L-32.55000000000004-3.6L-32.55000000000004-23.1Q-32.55000000000004-24.7 -33.35000000000004-25.6Q-34.15000000000004-26.5 -35.75000000000004-26.5L-35.75000000000004-26.5L-48.95000000000004-26.5L-48.95000000000004-3.6Q-48.95000000000004-1.7 -49.80000000000004-0.85Q-50.65000000000004 0 -52.55000000000004 0ZM 34.44999999999996 0L 34.44999999999996 0L 18.249999999999964 0Q 16.349999999999966 0  15.499999999999964-0.85Q 14.649999999999967-1.7  14.649999999999967-3.6L 14.649999999999967-3.6L 14.649999999999967-52.7L-0.05000000000003446-52.7Q-1.9500000000000348-52.7 -2.800000000000035-53.55Q-3.650000000000035-54.4 -3.650000000000035-56.3L-3.650000000000035-56.3L-3.650000000000035-68.4Q-3.650000000000035-70.3 -2.800000000000035-71.15Q-1.9500000000000348-72 -0.05000000000003446-72L-0.05000000000003446-72L 52.74999999999997-72Q 54.64999999999996-72  55.49999999999997-71.15Q 56.349999999999966-70.3  56.349999999999966-68.4L 56.349999999999966-68.4L 56.349999999999966-56.3Q 56.349999999999966-54.4  55.49999999999997-53.55Q 54.64999999999996-52.7  52.74999999999997-52.7L 52.74999999999997-52.7L 38.04999999999997-52.7L 38.04999999999997-3.6Q 38.04999999999997-1.7  37.19999999999996-0.85Q 36.349999999999966 0  34.44999999999996 0ZM 126.54999999999998-53L 126.54999999999998-18.9Q 126.54999999999998-14.3  125.19999999999996-10.55Q 123.84999999999997-6.8  120.39999999999998-4.15Q 116.94999999999996-1.5  110.89999999999998 0Q 104.84999999999997 1.5  95.54999999999997 1.5L 95.54999999999997 1.5Q 86.24999999999997 1.5  80.14999999999998 0Q 74.04999999999997-1.5  70.59999999999997-4.15Q 67.14999999999998-6.8  65.79999999999997-10.55Q 64.44999999999997-14.3  64.44999999999997-18.9L 64.44999999999997-18.9L 64.44999999999997-53Q 64.44999999999997-57.6  65.79999999999997-61.35Q 67.14999999999998-65.1  70.59999999999997-67.8Q 74.04999999999997-70.5  80.14999999999998-72Q 86.24999999999997-73.5  95.54999999999997-73.5L 95.54999999999997-73.5Q 104.84999999999997-73.5  110.89999999999998-72Q 116.94999999999996-70.5  120.39999999999998-67.8Q 123.84999999999997-65.1  125.19999999999996-61.35Q 126.54999999999998-57.6  126.54999999999998-53L 126.54999999999998-53ZM 87.14999999999998-49.4L 87.14999999999998-22.5Q 87.14999999999998-20.5  88.64999999999998-19.15Q 90.14999999999998-17.8  95.54999999999997-17.8L 95.54999999999997-17.8Q 100.94999999999996-17.8  102.44999999999996-19.15Q 103.94999999999996-20.5  103.94999999999996-22.5L 103.94999999999996-22.5L 103.94999999999996-49.4Q 103.94999999999996-51.3  102.44999999999996-52.65Q 100.94999999999996-54  95.54999999999997-54L 95.54999999999997-54Q 90.14999999999998-54  88.64999999999998-52.65Q 87.14999999999998-51.3  87.14999999999998-49.4L 87.14999999999998-49.4ZM 157.74999999999997 0L 157.74999999999997 0L 142.84999999999997 0Q 140.94999999999996 0  140.09999999999997-0.85Q 139.24999999999997-1.7  139.24999999999997-3.6L 139.24999999999997-3.6L 139.24999999999997-68.4Q 139.24999999999997-70.3  140.09999999999997-71.15Q 140.94999999999996-72  142.84999999999997-72L 142.84999999999997-72L 158.94999999999996-72Q 160.54999999999995-72  161.59999999999997-71.3Q 162.64999999999998-70.6  163.54999999999995-69L 163.54999999999995-69L 172.54999999999995-52.7Q 173.04999999999995-51.8  173.39999999999998-51.4Q 173.74999999999997-51  174.34999999999997-51L 174.34999999999997-51L 175.24999999999997-51Q 175.84999999999997-51  176.19999999999996-51.4Q 176.54999999999995-51.8  177.04999999999995-52.7L 177.04999999999995-52.7L 185.94999999999996-69Q 186.84999999999997-70.6  187.89999999999998-71.3Q 188.94999999999996-72  190.54999999999995-72L 190.54999999999995-72L 206.74999999999997-72Q 208.64999999999998-72  209.49999999999997-71.15Q 210.34999999999997-70.3  210.34999999999997-68.4L 210.34999999999997-68.4L 210.34999999999997-3.6Q 210.34999999999997-1.7  209.49999999999997-0.85Q 208.64999999999998 0  206.74999999999997 0L 206.74999999999997 0L 191.34999999999997 0Q 189.44999999999996 0  188.59999999999997-0.85Q 187.74999999999997-1.7  187.74999999999997-3.6L 187.74999999999997-3.6L 187.74999999999997-38.8L 181.84999999999997-27.9Q 180.94999999999996-26.2  179.69999999999996-25.45Q 178.44999999999996-24.7  176.54999999999995-24.7L 176.54999999999995-24.7L 172.54999999999995-24.7Q 170.64999999999998-24.7  169.39999999999998-25.45Q 168.14999999999998-26.2  167.24999999999997-27.9L 167.24999999999997-27.9L 161.34999999999997-38.8L 161.34999999999997-3.6Q 161.34999999999997-1.7  160.49999999999997-0.85Q 159.64999999999998 0  157.74999999999997 0ZM 274.1499999999999 0L 274.1499999999999 0L 227.74999999999994 0Q 225.84999999999994 0  224.99999999999994-0.85Q 224.14999999999995-1.7  224.14999999999995-3.6L 224.14999999999995-3.6L 224.14999999999995-68.4Q 224.14999999999995-70.3  224.99999999999994-71.15Q 225.84999999999994-72  227.74999999999994-72L 227.74999999999994-72L 274.1499999999999-72Q 276.04999999999995-72  276.8999999999999-71.15Q 277.74999999999994-70.3  277.74999999999994-68.4L 277.74999999999994-68.4L 277.74999999999994-56.7Q 277.74999999999994-54.8  276.8999999999999-53.95Q 276.04999999999995-53.1  274.1499999999999-53.1L 274.1499999999999-53.1L 246.54999999999995-53.1L 246.54999999999995-45.4L 266.04999999999995-45.4Q 267.94999999999993-45.4  268.79999999999995-44.55Q 269.6499999999999-43.7  269.6499999999999-41.8L 269.6499999999999-41.8L 269.6499999999999-31.1Q 269.6499999999999-29.2  268.79999999999995-28.35Q 267.94999999999993-27.5  266.04999999999995-27.5L 266.04999999999995-27.5L 246.54999999999995-27.5L 246.54999999999995-18.9L 274.1499999999999-18.9Q 276.04999999999995-18.9  276.8999999999999-18.05Q 277.74999999999994-17.2  277.74999999999994-15.3L 277.74999999999994-15.3L 277.74999999999994-3.6Q 277.74999999999994-1.7  276.8999999999999-0.85Q 276.04999999999995 0  274.1499999999999 0Z" data-textpath="TalkToMe" data-text-anchor="middle" data-font-size="100" data-letterspacing="0" data-side="left" data-offset="0" data-dx="0" data-dy="235.5" data-xmlspace="preserve" data-href="" data-font="Bungee" data-font-src="/Content/clientfonts/bungee.woff" data-font-scale="contain" transform="translate(283,235.5)" data-x="283" data-y="0" fill="url('#linearGradientSklw2oz2ogn')"/></g></svg></g><g transform="matrix(0.7224,0,0,0.7224,140.7025,182.6963)"><svg width="0" height="374" style="overflow: visible;"><defs><linearGradient x1="0" y1="0.5" x2="1" y2="0.5" id="linearGradientSklw2oz2ogu"><stop offset="0%" stop-color="#3bd1b3"/><stop offset="100%" stop-color="#3bd1b3"/></linearGradient></defs><g><path d="" data-textpath="" data-text-anchor="middle" data-font-size="100" data-letterspacing="0" data-side="left" data-offset="0" data-dx="0" data-dy="235.5" data-xmlspace="preserve" data-href="" data-font="Bungee" data-font-src="/Content/clientfonts/bungee.woff" data-font-scale="contain" transform="translate(179,235.5)" data-x="179" data-y="0" fill="url('#linearGradientSklw2oz2ogu')"/></g></svg></g></g></svg>
